<svg width="58" height="57" viewBox="0 0 58 57" fill="none" xmlns="http://www.w3.org/2000/svg">
<g id="icons" clipPath="url(#clip0_212_1316)">
<path id="Vector" d="M23.9595 11.875C23.9595 10.6152 24.4599 9.40704 25.3507 8.51624C26.2415 7.62544 27.4497 7.125 28.7095 7.125C29.9693 7.125 31.1774 7.62544 32.0682 8.51624C32.959 9.40704 33.4595 10.6152 33.4595 11.875C36.1869 13.1647 38.5121 15.1723 40.1856 17.6826C41.8591 20.1929 42.818 23.1113 42.9595 26.125V33.25C43.1382 34.7266 43.6611 36.1405 44.4862 37.378C45.3112 38.6156 46.4152 39.6421 47.7095 40.375H9.70947C11.0037 39.6421 12.1078 38.6156 12.9328 37.378C13.7578 36.1405 14.2807 34.7266 14.4595 33.25V26.125C14.6009 23.1113 15.5598 20.1929 17.2334 17.6826C18.9069 15.1723 21.232 13.1647 23.9595 11.875" stroke="black" strokeWidth="5" strokeLinecap="round" strokeLinejoin="round"/>
<path id="Vector_2" d="M21.5845 40.375V42.75C21.5845 44.6397 22.3351 46.4519 23.6713 47.7881C25.0075 49.1243 26.8198 49.875 28.7095 49.875C30.5991 49.875 32.4114 49.1243 33.7476 47.7881C35.0838 46.4519 35.8345 44.6397 35.8345 42.75V40.375" stroke="black" strokeWidth="5" strokeLinecap="round" strokeLinejoin="round"/>
</g>
<defs>
<clipPath id="clip0_212_1316">
<rect width="57" height="57" fill="white" transform="translate(0.209473)"/>
</clipPath>
</defs>
</svg>
