<svg width="34" height="40" viewBox="0 0 34 40" fill="none" xmlns="http://www.w3.org/2000/svg">
<g id="fa6-solid:b">
<path id="Vector" d="M6.8 2.5C3.04938 2.5 0 4.74219 0 7.5V32.5C0 35.2578 3.04938 37.5 6.8 37.5H20.4C27.9119 37.5 34 33.0234 34 27.5C34 23.8672 31.365 20.6797 27.4125 18.9297C29.3994 17.1875 30.6 14.9453 30.6 12.5C30.6 6.97656 24.5119 2.5 17 2.5H6.8ZM17 17.5H6.8V7.5H17C20.7506 7.5 23.8 9.74219 23.8 12.5C23.8 15.2578 20.7506 17.5 17 17.5ZM6.8 22.5H20.4C24.1506 22.5 27.2 24.7422 27.2 27.5C27.2 30.2578 24.1506 32.5 20.4 32.5H6.8V22.5Z" fill="white"/>
</g>
</svg>
