<svg width="27" height="27" viewBox="0 0 27 27" fill="none" xmlns="http://www.w3.org/2000/svg">
<g id="Icon / Line / Calendar Date">
<g id="Group 1407">
<path id="Vector" d="M13.5002 6.64654C15.8066 6.64654 16.9598 6.64654 17.8695 7.02597M13.5002 6.64654C12.3043 6.64654 11.4184 6.64654 10.7158 6.69943M13.5002 6.64654C14.8786 6.64654 15.8451 6.64654 16.5939 6.72753M17.8695 7.02597C19.0824 7.53188 20.046 8.50225 20.5484 9.72362C20.7574 10.2318 20.8505 10.8155 20.8919 11.6312M17.8695 7.02597C17.5815 6.90583 17.269 6.82375 16.9033 6.76764M6.10844 11.6312C6.0752 12.2856 6.0752 13.0895 6.0752 14.1235C6.0752 16.446 6.0752 17.6073 6.45199 18.5233C6.95439 19.7447 7.91802 20.7151 9.13091 21.221C10.0406 21.6004 11.1938 21.6004 13.5002 21.6004C15.8066 21.6004 16.9598 21.6004 17.8695 21.221C19.0824 20.7151 20.046 19.7447 20.5484 18.5233C20.9252 17.6073 20.9252 16.446 20.9252 14.1235C20.9252 13.0895 20.9252 12.2856 20.8919 11.6312M6.10844 11.6312C6.14988 10.8155 6.24294 10.2318 6.45199 9.72362C6.95439 8.50225 7.91802 7.53188 9.13091 7.02597C9.41893 6.90583 9.73136 6.82374 10.0971 6.76763M6.10844 11.6312H20.8919M10.0971 6.76763C10.2875 6.73842 10.4924 6.71625 10.7158 6.69943M10.0971 6.76763V5.55508C10.0971 5.46965 10.1663 5.40039 10.2518 5.40039V5.40039C10.3372 5.40039 10.4064 5.46965 10.4064 5.55508V6.72753M10.0971 6.76763C10.1961 6.75244 10.299 6.73915 10.4064 6.72753M10.7158 6.69943C10.6086 6.7075 10.5056 6.71681 10.4064 6.72753M16.9033 6.76764V5.55508C16.9033 5.46965 16.8341 5.40039 16.7486 5.40039V5.40039C16.6632 5.40039 16.5939 5.46965 16.5939 5.55508V6.72753M16.9033 6.76764C16.8043 6.75245 16.7014 6.73915 16.5939 6.72753" stroke="white" stroke-width="2" stroke-linecap="round"/>
<path id="Rectangle 1323" d="M16.2002 17.8875C16.2002 17.3283 16.6535 16.875 17.2127 16.875C17.7719 16.875 18.2252 17.3283 18.2252 17.8875C18.2252 18.4467 17.7719 18.9 17.2127 18.9C16.6535 18.9 16.2002 18.4467 16.2002 17.8875Z" fill="white"/>
</g>
</g>
</svg>
