<svg width="27" height="27" viewBox="0 0 27 27" fill="none" xmlns="http://www.w3.org/2000/svg">
<g id="material-symbols:call">
<path id="Vector" d="M22.4438 23.625C20.1 23.625 17.7844 23.1139 15.4969 22.0916C13.2094 21.0694 11.1281 19.6211 9.25313 17.7469C7.37813 15.8719 5.92987 13.7906 4.90837 11.5031C3.88687 9.21563 3.37575 6.9 3.375 4.55625C3.375 4.21875 3.4875 3.9375 3.7125 3.7125C3.9375 3.4875 4.21875 3.375 4.55625 3.375H9.1125C9.375 3.375 9.60938 3.46425 9.81563 3.64275C10.0219 3.82125 10.1438 4.032 10.1813 4.275L10.9125 8.2125C10.95 8.5125 10.9406 8.76562 10.8844 8.97187C10.8281 9.17812 10.725 9.35625 10.575 9.50625L7.84687 12.2625C8.22187 12.9562 8.667 13.6264 9.18225 14.2729C9.6975 14.9194 10.2649 15.543 10.8844 16.1438C11.4656 16.725 12.075 17.2642 12.7125 17.7615C13.35 18.2587 14.025 18.7133 14.7375 19.125L17.3812 16.4812C17.55 16.3125 17.7705 16.1858 18.0428 16.101C18.315 16.0163 18.582 15.993 18.8438 16.0312L22.725 16.8187C22.9875 16.8938 23.2031 17.0299 23.3719 17.2271C23.5406 17.4244 23.625 17.6445 23.625 17.8875V22.4438C23.625 22.7812 23.5125 23.0625 23.2875 23.2875C23.0625 23.5125 22.7812 23.625 22.4438 23.625Z" fill="black"/>
</g>
</svg>
