<svg width="50" height="45" viewBox="0 0 50 45" fill="none" xmlns="http://www.w3.org/2000/svg">
<g id="Icon / Line / 2 Users">
<path id="Vector" d="M28.608 34.875C28.608 35.9796 29.5035 36.875 30.608 36.875C31.7126 36.875 32.608 35.9796 32.608 34.875H28.608ZM6.70801 34.875C6.70801 35.9796 7.60344 36.875 8.70801 36.875C9.81258 36.875 10.708 35.9796 10.708 34.875H6.70801ZM34.1293 27.988V25.988C33.0322 25.988 32.1398 26.872 32.1294 27.9691C32.1191 29.0662 32.9945 29.9669 34.0915 29.9877L34.1293 27.988ZM33.5093 15.6576C32.4047 15.6576 31.5093 16.553 31.5093 17.6576C31.5093 18.7622 32.4047 19.6576 33.5093 19.6576V15.6576ZM38.9497 34.875C38.9497 35.9796 39.8451 36.875 40.9497 36.875C42.0543 36.875 42.9497 35.9796 42.9497 34.875H38.9497ZM25.8705 17.55C25.8705 20.3612 23.2835 22.975 19.658 22.975V26.975C25.1038 26.975 29.8705 22.9402 29.8705 17.55H25.8705ZM19.658 22.975C16.0325 22.975 13.4455 20.3612 13.4455 17.55H9.44551C9.44551 22.9402 14.2123 26.975 19.658 26.975V22.975ZM13.4455 17.55C13.4455 14.7388 16.0325 12.125 19.658 12.125V8.125C14.2123 8.125 9.44551 12.1598 9.44551 17.55H13.4455ZM19.658 12.125C23.2835 12.125 25.8705 14.7388 25.8705 17.55H29.8705C29.8705 12.1598 25.1038 8.125 19.658 8.125V12.125ZM10.708 34.875C10.708 33.4731 10.7119 32.3225 10.8586 31.3074C11.0013 30.3191 11.261 29.619 11.666 29.0888C12.4342 28.0834 14.3146 26.975 19.658 26.975V22.975C14.0514 22.975 10.4568 24.0828 8.48751 26.6604C7.52378 27.9219 7.09908 29.355 6.89965 30.7355C6.70409 32.0893 6.70801 33.5431 6.70801 34.875H10.708ZM19.6187 26.9746C24.9811 27.08 26.8824 28.18 27.6589 29.1811C28.0601 29.6983 28.3166 30.3764 28.4581 31.3417C28.604 32.3374 28.608 33.4718 28.608 34.875H32.608C32.608 33.5444 32.6121 32.1013 32.4158 30.7618C32.2151 29.3919 31.7872 27.977 30.8196 26.7296C28.8586 24.2014 25.285 23.0852 19.6973 22.9754L19.6187 26.9746ZM36.9726 22.8228C36.9726 23.9044 36.6749 24.6907 36.261 25.1735C35.8857 25.6112 35.2582 25.988 34.1293 25.988V29.988C36.2763 29.988 38.0704 29.2086 39.2978 27.7769C40.4866 26.3902 40.9726 24.5939 40.9726 22.8228H36.9726ZM33.5093 19.6576C35.7239 19.6576 36.9726 21.1176 36.9726 22.8228H40.9726C40.9726 18.8227 37.8462 15.6576 33.5093 15.6576V19.6576ZM34.0915 29.9877C38.0328 30.0623 38.6571 30.8626 38.7779 31.0696C38.8813 31.2468 38.9783 31.5684 38.9968 32.2684C39.0059 32.6086 38.9964 32.9816 38.982 33.4289C38.9682 33.8594 38.9497 34.3596 38.9497 34.875H42.9497C42.9497 34.4395 42.9652 34.016 42.98 33.5575C42.9942 33.1157 43.008 32.6343 42.9954 32.1622C42.9709 31.2378 42.8455 30.1035 42.2324 29.0531C40.9202 26.8049 38.1342 26.0635 34.1672 25.9884L34.0915 29.9877Z" fill="#A117E8"/>
</g>
</svg>
