<svg width="40" height="40" viewBox="0 0 40 40" fill="none" xmlns="http://www.w3.org/2000/svg">
<g id="Icon / Line / Device">
<path id="Vector" d="M10.3501 36.3339L10.9288 34.9501H10.9288L10.3501 36.3339ZM5.65971 31.5985L4.27196 32.1678H4.27196L5.65971 31.5985ZM25.6499 36.3339L25.0712 34.9501L25.6499 36.3339ZM25.6499 2.66605L25.0712 4.04992L25.6499 2.66605ZM30.3403 7.40152L28.9525 7.97087L30.3403 7.40152ZM10.3501 2.66605L9.77135 1.28219L10.3501 2.66605ZM5.65971 7.40152L4.27196 6.83217L5.65971 7.40152ZM13.6667 29.6667C12.8382 29.6667 12.1667 30.3382 12.1667 31.1667C12.1667 31.9951 12.8382 32.6667 13.6667 32.6667V29.6667ZM22.3333 32.6667C23.1618 32.6667 23.8333 31.9951 23.8333 31.1667C23.8333 30.3382 23.1618 29.6667 22.3333 29.6667V32.6667ZM23.7577 2.18361L23.9589 0.697155L23.7577 2.18361ZM29.5 15.125V23.875H32.5V15.125H29.5ZM6.5 23.875V15.125H3.5V23.875H6.5ZM18 35.5C15.9602 35.5 14.5062 35.4992 13.3611 35.4203C12.2297 35.3424 11.5105 35.1934 10.9288 34.9501L9.77135 37.7178C10.7823 38.1406 11.869 38.3246 13.1549 38.4132C14.427 38.5008 16.0016 38.5 18 38.5V35.5ZM3.5 23.875C3.5 25.8932 3.4992 27.4812 3.58588 28.7638C3.67344 30.0595 3.85519 31.152 4.27196 32.1678L7.04746 31.0291C6.80452 30.437 6.65641 29.7062 6.57905 28.5615C6.5008 27.4035 6.5 25.9338 6.5 23.875H3.5ZM10.9288 34.9501C9.17503 34.2167 7.77723 32.8079 7.04746 31.0291L4.27196 32.1678C5.30142 34.6771 7.27797 36.6751 9.77135 37.7178L10.9288 34.9501ZM29.5 23.875C29.5 25.9338 29.4992 27.4035 29.4209 28.5615C29.3436 29.7062 29.1955 30.437 28.9525 31.0291L31.728 32.1678C32.1448 31.152 32.3266 30.0595 32.4141 28.7638C32.5008 27.4812 32.5 25.8932 32.5 23.875H29.5ZM18 38.5C19.9984 38.5 21.573 38.5008 22.8451 38.4132C24.131 38.3246 25.2177 38.1406 26.2286 37.7178L25.0712 34.9501C24.4895 35.1934 23.7703 35.3424 22.6389 35.4203C21.4938 35.4992 20.0398 35.5 18 35.5V38.5ZM28.9525 31.0291C28.2228 32.8079 26.825 34.2167 25.0712 34.9501L26.2286 37.7178C28.722 36.6751 30.6986 34.6771 31.728 32.1678L28.9525 31.0291ZM32.5 15.125C32.5 13.1068 32.5008 11.5188 32.4141 10.2362C32.3266 8.9405 32.1448 7.84803 31.728 6.83217L28.9525 7.97087C29.1955 8.56301 29.3436 9.29378 29.4209 10.4385C29.4992 11.5965 29.5 13.0662 29.5 15.125H32.5ZM25.0712 4.04992C26.825 4.78334 28.2228 6.1921 28.9525 7.97087L31.728 6.83217C30.6986 4.32294 28.722 2.32491 26.2286 1.28219L25.0712 4.04992ZM6.5 15.125C6.5 13.0662 6.5008 11.5965 6.57905 10.4385C6.65641 9.29378 6.80452 8.56301 7.04746 7.97087L4.27196 6.83217C3.85519 7.84803 3.67344 8.9405 3.58588 10.2362C3.4992 11.5188 3.5 13.1068 3.5 15.125H6.5ZM9.77135 1.28219C7.27797 2.32491 5.30142 4.32294 4.27196 6.83217L7.04746 7.97087C7.77723 6.1921 9.17503 4.78334 10.9288 4.04992L9.77135 1.28219ZM13.6667 32.6667H22.3333V29.6667H13.6667V32.6667ZM23.0556 3.41667H12.9444V6.41667H23.0556V3.41667ZM12.9444 3.41667C12.9514 3.41667 12.9615 3.41841 12.9713 3.42258C12.98 3.4263 12.9855 3.43064 12.9888 3.43396C12.9921 3.43727 12.9949 3.4413 12.997 3.44639C12.9981 3.44903 12.9989 3.45174 12.9995 3.45428C13 3.45689 13 3.45841 13 3.45833H10C10 5.07861 11.3048 6.41667 12.9444 6.41667V3.41667ZM23 3.45833C23 3.45841 23 3.45689 23.0005 3.45428C23.0011 3.45174 23.0019 3.44903 23.003 3.44639C23.0051 3.4413 23.0079 3.43727 23.0112 3.43396C23.0145 3.43064 23.02 3.4263 23.0287 3.42258C23.0385 3.41841 23.0486 3.41667 23.0556 3.41667V6.41667C24.6952 6.41667 26 5.07861 26 3.45833H23ZM23.0222 3.49086C23.0133 3.48588 23.0086 3.48044 23.0056 3.47542C23.0038 3.47245 23.0023 3.46896 23.0012 3.46517C23.0007 3.46331 23.0004 3.46165 23.0002 3.46028C23 3.4589 23 3.4582 23 3.45833H26C26 2.35167 25.3935 1.3829 24.4933 0.876348L23.0222 3.49086ZM18 3.5C20.6741 3.5 22.3246 3.50333 23.5566 3.67006L23.9589 0.697155C22.4774 0.496672 20.5821 0.5 18 0.5V3.5ZM23.5566 3.67006C24.191 3.75591 24.6656 3.88028 25.0712 4.04992L26.2286 1.28219C25.522 0.986681 24.7803 0.808322 23.9589 0.697155L23.5566 3.67006ZM11.5067 0.876348C10.6065 1.3829 10 2.35167 10 3.45833H13C13 3.4582 13 3.4589 12.9998 3.46028C12.9996 3.46165 12.9993 3.46331 12.9988 3.46517C12.9977 3.46896 12.9962 3.47245 12.9944 3.47542C12.9914 3.48044 12.9867 3.48588 12.9778 3.49086L11.5067 0.876348ZM18 0.5C15.4179 0.5 13.5226 0.496672 12.0411 0.697155L12.4434 3.67006C13.6754 3.50333 15.3259 3.5 18 3.5V0.5ZM12.0411 0.697155C11.2197 0.808322 10.478 0.986681 9.77135 1.28219L10.9288 4.04992C11.3344 3.88028 11.809 3.75591 12.4434 3.67006L12.0411 0.697155Z" fill="#A117E8"/>
</g>
</svg>
