<svg width="37" height="37" viewBox="0 0 37 37" fill="none" xmlns="http://www.w3.org/2000/svg">
<g id="solar:pen-bold">
<path id="Vector" d="M17.5752 27.9982L28.9774 16.596C27.059 15.7951 25.3168 14.6249 23.8498 13.152C22.3762 11.6846 21.2054 9.94187 20.4042 8.02284L9.00202 19.425C8.11248 20.3145 7.66694 20.7601 7.28461 21.2503C6.83306 21.8289 6.44588 22.4549 6.1299 23.1173C5.86319 23.6785 5.66432 24.2766 5.26657 25.4699L3.16682 31.7645C3.07017 32.0527 3.05584 32.3622 3.12541 32.6581C3.19499 32.954 3.34572 33.2246 3.56067 33.4396C3.77561 33.6545 4.04625 33.8053 4.34216 33.8748C4.63807 33.9444 4.94752 33.9301 5.23573 33.8334L11.5304 31.7337C12.7251 31.3359 13.3218 31.137 13.8829 30.8703C14.5459 30.5543 15.1718 30.1673 15.7499 29.7156C16.2401 29.3333 16.6857 28.8878 17.5752 27.9982ZM32.1409 13.4325C33.2778 12.2957 33.9165 10.7537 33.9165 9.14594C33.9165 7.53816 33.2778 5.99622 32.1409 4.85934C31.004 3.72246 29.4621 3.08377 27.8543 3.08377C26.2465 3.08377 24.7046 3.72246 23.5677 4.85934L22.2002 6.2268L22.2588 6.39792C22.9327 8.32611 24.0355 10.0762 25.484 11.5163C26.9671 13.0081 28.7785 14.1326 30.7734 14.8L32.1409 13.4325Z" fill="black"/>
</g>
</svg>
