<svg width="66" height="66" viewBox="0 0 66 66" fill="none" xmlns="http://www.w3.org/2000/svg">
<path d="M35.3032 21.8681L35.8997 21.2716C37.9808 19.1905 39.0213 18.15 40.3143 18.15C41.6073 18.15 42.6478 19.1905 44.7288 21.2716C46.8099 23.3526 47.8504 24.3931 47.8504 25.6861C47.8504 26.9791 46.8099 28.0196 44.7288 30.1007L44.1323 30.6972M35.3032 21.8681L19.9864 37.185C19.0671 38.1043 18.6074 38.564 18.3695 39.1495C18.1317 39.7351 18.1406 40.3851 18.1584 41.685L18.2 44.7219C18.2196 46.1568 18.2295 46.8744 18.6778 47.3227C19.1261 47.771 19.8436 47.7808 21.2785 47.8004L24.3154 47.842C25.6154 47.8598 26.2654 47.8687 26.8509 47.6308C27.4365 47.393 27.8961 46.9334 28.8154 46.014L44.1323 30.6972M35.3032 21.8681L44.1323 30.6972M35.3451 47.842L47.8504 47.842" stroke="white" strokeWidth="5" strokeLinecap="round"/>
</svg>
