<svg width="51" height="46" viewBox="0 0 51 46" fill="none" xmlns="http://www.w3.org/2000/svg">
<path d="M9.70645 27.2401L8.93021 27.8706L9.70645 27.2401ZM9.70645 20.7599L8.93021 20.1294L9.70645 20.7599ZM41.2936 27.2401L42.0698 27.8706L41.2936 27.2401ZM41.2936 20.7599L42.0698 20.1294L41.2936 20.7599ZM43 24H44H43ZM40.5173 26.6097C38.9841 28.4975 36.7899 30.865 34.1755 32.7533C31.5545 34.6463 28.5918 36 25.5 36V38C29.1732 38 32.5437 36.3989 35.3465 34.3746C38.1559 32.3455 40.4759 29.8331 42.0698 27.8706L40.5173 26.6097ZM25.5 36C22.4082 36 19.4455 34.6463 16.8245 32.7533C14.2101 30.865 12.0159 28.4975 10.4827 26.6097L8.93021 27.8706C10.5241 29.8331 12.8441 32.3455 15.6535 34.3746C18.4563 36.3989 21.8268 38 25.5 38V36ZM10.4827 21.3903C12.0159 19.5025 14.2101 17.135 16.8245 15.2467C19.4455 13.3537 22.4082 12 25.5 12V10C21.8268 10 18.4563 11.6011 15.6535 13.6254C12.8441 15.6545 10.5241 18.1669 8.93021 20.1294L10.4827 21.3903ZM25.5 12C28.5918 12 31.5545 13.3537 34.1755 15.2467C36.7899 17.135 38.9841 19.5025 40.5173 21.3903L42.0698 20.1294C40.4759 18.1669 38.1559 15.6545 35.3465 13.6254C32.5437 11.6011 29.1732 10 25.5 10V12ZM10.4827 26.6097C9.28608 25.1363 9 24.7188 9 24H7C7 25.5592 7.85155 26.5424 8.93021 27.8706L10.4827 26.6097ZM8.93021 20.1294C7.85155 21.4576 7 22.4408 7 24H9C9 23.2812 9.28608 22.8637 10.4827 21.3903L8.93021 20.1294ZM42.0698 27.8706C43.1485 26.5424 44 25.5592 44 24H42C42 24.7188 41.7139 25.1363 40.5173 26.6097L42.0698 27.8706ZM40.5173 21.3903C41.7139 22.8637 42 23.2812 42 24H44C44 22.4408 43.1485 21.4576 42.0698 20.1294L40.5173 21.3903ZM29.4549 24C29.4549 26.1248 27.6996 27.875 25.5 27.875V29.875C28.7734 29.875 31.4549 27.2599 31.4549 24H29.4549ZM25.5 27.875C23.3004 27.875 21.5451 26.1248 21.5451 24H19.5451C19.5451 27.2599 22.2266 29.875 25.5 29.875V27.875ZM21.5451 24C21.5451 21.8752 23.3004 20.125 25.5 20.125V18.125C22.2266 18.125 19.5451 20.7401 19.5451 24H21.5451ZM25.5 20.125C27.6996 20.125 29.4549 21.8752 29.4549 24H31.4549C31.4549 20.7401 28.7734 18.125 25.5 18.125V20.125Z" fill="black"/>
</svg>
