<svg width="41" height="46" viewBox="0 0 41 46" fill="none" xmlns="http://www.w3.org/2000/svg">
<path d="M20.2396 3.86157C10.963 3.86157 3.37305 12.3043 3.37305 22.7026C3.37305 32.1043 9.54621 39.9077 17.6084 41.318V28.1556H13.3243V22.7026H17.6084V18.547C17.6084 13.8274 20.1216 11.2325 23.984 11.2325C25.8225 11.2325 27.7452 11.5898 27.7452 11.5898V16.2342H25.6201C23.5286 16.2342 22.8708 17.6821 22.8708 19.1676V22.7026H27.5597L26.8007 28.1556H22.8708V41.318C26.8453 40.6182 30.4645 38.3574 33.075 34.9437C35.6854 31.5301 37.1152 27.1884 37.1062 22.7026C37.1062 12.3043 29.5162 3.86157 20.2396 3.86157Z" fill="white"/>
</svg>
