<svg width="70" height="70" viewBox="0 0 70 70" fill="none" xmlns="http://www.w3.org/2000/svg">
<g id="Facebook logo" clipPath="url(#clip0_179_735)">
<path id="Vector" d="M66.1363 -0.777832H3.86367C2.83896 -0.777832 1.85622 -0.370768 1.13164 0.353811C0.407064 1.07839 0 2.06113 0 3.08584L0 65.3585C0 66.3832 0.407064 67.3659 1.13164 68.0905C1.85622 68.8151 2.83896 69.2222 3.86367 69.2222H37.3926V42.1519H28.3008V31.5562H37.3926V23.7632C37.3926 14.722 42.9146 9.79873 50.9824 9.79873C54.8447 9.79873 58.1656 10.0858 59.1309 10.2089V19.6575H53.5664C49.1777 19.6575 48.3273 21.7425 48.3273 24.8036V31.5562H58.8191L57.452 42.1519H48.3273V69.2222H66.1336C66.6412 69.2225 67.1439 69.1229 67.613 68.9288C68.0821 68.7348 68.5083 68.4503 68.8674 68.0915C69.2265 67.7327 69.5113 67.3066 69.7056 66.8377C69.9 66.3688 70 65.8661 70 65.3585V3.08584C70 2.06113 69.5929 1.07839 68.8684 0.353811C68.1438 -0.370768 67.161 -0.777832 66.1363 -0.777832Z" fill="#1D87BD"/>
<path id="Vector_2" d="M48.3301 70.0002V42.9299H57.4561L58.8232 32.3342H48.3301V25.5857C48.3301 22.5246 49.1777 20.4396 53.5691 20.4396H59.1309V10.9883C58.1629 10.8598 54.842 10.5781 50.9824 10.5781C42.916 10.5781 37.3926 15.5 37.3926 24.5426V32.3355H28.3008V42.9299H37.3926V70.0002H48.3301Z" fill="white"/>
</g>
<defs>
<clipPath id="clip0_179_735">
<rect width="70" height="70" fill="white"/>
</clipPath>
</defs>
</svg>
