<svg width="70" height="70" viewBox="0 0 70 70" fill="none" xmlns="http://www.w3.org/2000/svg">
<g id="Google logo" clipPath="url(#clip0_179_739)">
<path id="Vector" d="M59.5 0H10.5C4.70101 0 0 4.70101 0 10.5V59.5C0 65.299 4.70101 70 10.5 70H59.5C65.299 70 70 65.299 70 59.5V10.5C70 4.70101 65.299 0 59.5 0Z" fill="white"/>
<path id="Vector_2" d="M52.7734 54.6875C58.9258 48.9453 61.6602 39.375 60.0195 30.2148H35.5469V40.332H49.4922C48.9453 43.6133 47.0312 46.3477 44.2969 48.125L52.7734 54.6875Z" fill="#4285F4"/>
<path id="Vector_3" d="M12.3047 46.6211C14.1032 50.164 16.6826 53.2524 19.8483 55.6535C23.014 58.0546 26.6835 59.7057 30.5801 60.4824C34.4767 61.2591 38.4988 61.1411 42.3432 60.1373C46.1876 59.1335 49.7539 57.2701 52.7734 54.6875L44.2969 48.125C37.0508 52.9102 25.0195 51.1328 20.918 39.9219L12.3047 46.6211Z" fill="#34A853"/>
<path id="Vector_4" d="M20.918 39.9219C19.8242 36.5039 19.8242 33.3594 20.918 29.9414L12.3047 23.2422C9.16019 29.5312 8.20316 38.418 12.3047 46.6211L20.918 39.9219Z" fill="#FBBC02"/>
<path id="Vector_5" d="M20.918 29.9414C23.9258 20.5078 36.7773 15.0391 45.3906 23.1055L52.9102 15.7227C42.2461 5.46877 21.4648 5.87892 12.3047 23.2422L20.918 29.9414Z" fill="#EA4335"/>
</g>
<defs>
<clipPath id="clip0_179_739">
<rect width="70" height="70" fill="white"/>
</clipPath>
</defs>
</svg>
