<svg width="41" height="46" viewBox="0 0 41 46" fill="none" xmlns="http://www.w3.org/2000/svg">
<g id="mdi:instagram">
<path id="Vector" d="M13.5541 3.78638H27.722C33.1193 3.78638 37.5046 8.67527 37.5046 14.6924V30.4872C37.5046 33.3797 36.474 36.1537 34.6394 38.1989C32.8048 40.2442 30.3165 41.3932 27.722 41.3932H13.5541C8.15679 41.3932 3.77148 36.5043 3.77148 30.4872V14.6924C3.77148 11.7999 4.80215 9.02593 6.63675 6.98067C8.47134 4.9354 10.9596 3.78638 13.5541 3.78638ZM13.2168 7.54706C11.6064 7.54706 10.062 8.26025 8.92324 9.52972C7.78452 10.7992 7.1448 12.521 7.1448 14.3163V30.8633C7.1448 34.6052 9.86032 37.6325 13.2168 37.6325H28.0594C29.6697 37.6325 31.2142 36.9193 32.3529 35.6499C33.4916 34.3804 34.1313 32.6586 34.1313 30.8633V14.3163C34.1313 10.5744 31.4158 7.54706 28.0594 7.54706H13.2168ZM29.493 10.3676C30.0522 10.3676 30.5884 10.6152 30.9838 11.056C31.3792 11.4968 31.6013 12.0946 31.6013 12.718C31.6013 13.3414 31.3792 13.9392 30.9838 14.38C30.5884 14.8208 30.0522 15.0684 29.493 15.0684C28.9338 15.0684 28.3976 14.8208 28.0022 14.38C27.6068 13.9392 27.3847 13.3414 27.3847 12.718C27.3847 12.0946 27.6068 11.4968 28.0022 11.056C28.3976 10.6152 28.9338 10.3676 29.493 10.3676ZM20.6381 13.1881C22.8747 13.1881 25.0197 14.1786 26.6013 15.9418C28.1828 17.7049 29.0713 20.0963 29.0713 22.5898C29.0713 25.0833 28.1828 27.4746 26.6013 29.2378C25.0197 31.001 22.8747 31.9915 20.6381 31.9915C18.4014 31.9915 16.2564 31.001 14.6748 29.2378C13.0933 27.4746 12.2048 25.0833 12.2048 22.5898C12.2048 20.0963 13.0933 17.7049 14.6748 15.9418C16.2564 14.1786 18.4014 13.1881 20.6381 13.1881ZM20.6381 16.9488C19.2961 16.9488 18.009 17.5431 17.0601 18.601C16.1112 19.6589 15.5781 21.0937 15.5781 22.5898C15.5781 24.0859 16.1112 25.5207 17.0601 26.5786C18.009 27.6365 19.2961 28.2308 20.6381 28.2308C21.98 28.2308 23.2671 27.6365 24.216 26.5786C25.1649 25.5207 25.698 24.0859 25.698 22.5898C25.698 21.0937 25.1649 19.6589 24.216 18.601C23.2671 17.5431 21.98 16.9488 20.6381 16.9488Z" fill="white"/>
</g>
</svg>
