<svg width="40" height="40" viewBox="0 0 40 40" fill="none" xmlns="http://www.w3.org/2000/svg">
<g id="Help outline" clipPath="url(#clip0_456_554)">
<path id="Vector" d="M18.3335 30.0002H21.6668V26.6668H18.3335V30.0002ZM20.0002 3.3335C10.8002 3.3335 3.3335 10.8002 3.3335 20.0002C3.3335 29.2002 10.8002 36.6668 20.0002 36.6668C29.2002 36.6668 36.6668 29.2002 36.6668 20.0002C36.6668 10.8002 29.2002 3.3335 20.0002 3.3335ZM20.0002 33.3335C12.6502 33.3335 6.66683 27.3502 6.66683 20.0002C6.66683 12.6502 12.6502 6.66683 20.0002 6.66683C27.3502 6.66683 33.3335 12.6502 33.3335 20.0002C33.3335 27.3502 27.3502 33.3335 20.0002 33.3335ZM20.0002 10.0002C16.3168 10.0002 13.3335 12.9835 13.3335 16.6668H16.6668C16.6668 14.8335 18.1668 13.3335 20.0002 13.3335C21.8335 13.3335 23.3335 14.8335 23.3335 16.6668C23.3335 20.0002 18.3335 19.5835 18.3335 25.0002H21.6668C21.6668 21.2502 26.6668 20.8335 26.6668 16.6668C26.6668 12.9835 23.6835 10.0002 20.0002 10.0002Z" fill="#858585"/>
</g>
<defs>
<clipPath id="clip0_456_554">
<rect width="40" height="40" fill="white"/>
</clipPath>
</defs>
</svg>
