<svg width="39" height="42" viewBox="0 0 39 42" fill="none" xmlns="http://www.w3.org/2000/svg">
<path d="M6.85723 38.7122L5.95324 40.4962H5.95324L6.85723 38.7122ZM2.16803 25.337L0.168094 25.3215L0.168034 25.3292V25.337H2.16803ZM3.08389 34.9597L4.86386 34.0477L4.86386 34.0477L3.08389 34.9597ZM36.6549 25.337H38.6549V25.3244L38.6547 25.3117L36.6549 25.337ZM35.739 34.9597L37.519 35.8716L35.739 34.9597ZM31.9657 38.7122L32.8697 40.4962L31.9657 38.7122ZM31.9657 9.09962L31.0617 10.8837L31.9657 9.09962ZM35.739 12.8521L37.519 11.9401L35.739 12.8521ZM6.85723 9.09962L7.76122 10.8837L6.85723 9.09962ZM3.08389 12.8521L4.86386 13.7641L3.08389 12.8521ZM36.5872 16.5933L34.5917 16.7281V16.7281L36.5872 16.5933ZM36.5579 17.661L34.6542 17.0479V17.0479L36.5579 17.661ZM36.1769 18.2636L37.3749 19.8652L37.4656 19.7973L37.548 19.7197L36.1769 18.2636ZM2.26498 17.661L4.16867 17.0479L2.26498 17.661ZM2.646 18.2636L1.2749 19.7197L1.35735 19.7973L1.44805 19.8652L2.646 18.2636ZM15.3332 23.7117L15.6526 21.7374L15.3332 23.7117ZM2.86633 18.4285L1.66837 20.03L1.66837 20.03L2.86633 18.4285ZM23.4897 23.7117L23.1703 21.7374H23.1703L23.4897 23.7117ZM35.9566 18.4285L37.1545 20.03L37.1545 20.03L35.9566 18.4285ZM15.9577 10.1637H22.8652V6.16373H15.9577V10.1637ZM22.8652 37.648H15.9577V41.648H22.8652V37.648ZM15.9577 37.648C13.5071 37.648 11.7887 37.6465 10.4487 37.5376C9.13171 37.4306 8.35676 37.2299 7.76122 36.9281L5.95324 40.4962C7.20469 41.1303 8.56215 41.3975 10.1248 41.5245C11.6643 41.6496 13.5727 41.648 15.9577 41.648V37.648ZM0.168034 25.337C0.168034 27.7083 0.160487 29.741 0.278034 31.4039C0.394438 33.0507 0.644459 34.5845 1.30392 35.8716L4.86386 34.0477C4.58224 33.498 4.37433 32.625 4.26808 31.1219C4.16297 29.6349 4.16803 27.7747 4.16803 25.337H0.168034ZM7.76122 36.9281C6.51199 36.2951 5.4984 35.2862 4.86386 34.0477L1.30392 35.8716C2.32499 37.8645 3.95316 39.4827 5.95324 40.4962L7.76122 36.9281ZM34.6549 25.337C34.6549 27.7747 34.6599 29.6349 34.5548 31.1219C34.4486 32.625 34.2407 33.498 33.9591 34.0477L37.519 35.8716C38.1785 34.5845 38.4285 33.0507 38.5449 31.4039C38.6624 29.741 38.6549 27.7083 38.6549 25.337H34.6549ZM22.8652 41.648C25.2502 41.648 27.1586 41.6496 28.6982 41.5245C30.2608 41.3975 31.6182 41.1303 32.8697 40.4962L31.0617 36.9281C30.4662 37.2299 29.6912 37.4306 28.3742 37.5376C27.0342 37.6465 25.3158 37.648 22.8652 37.648V41.648ZM33.9591 34.0477C33.3245 35.2862 32.3109 36.2951 31.0617 36.9281L32.8697 40.4962C34.8698 39.4827 36.4979 37.8645 37.519 35.8716L33.9591 34.0477ZM22.8652 10.1637C25.3158 10.1637 27.0342 10.1653 28.3742 10.2741C29.6912 10.3812 30.4662 10.5819 31.0617 10.8837L32.8697 7.31558C31.6182 6.68146 30.2608 6.41425 28.6982 6.28729C27.1586 6.16219 25.2502 6.16373 22.8652 6.16373V10.1637ZM31.0617 10.8837C32.3109 11.5167 33.3245 12.5256 33.9591 13.7641L37.519 11.9401C36.4979 9.94725 34.8698 8.32904 32.8697 7.31558L31.0617 10.8837ZM15.9577 6.16373C13.5727 6.16373 11.6643 6.16219 10.1248 6.28729C8.56215 6.41425 7.20469 6.68146 5.95324 7.31558L7.76122 10.8837C8.35676 10.5819 9.13171 10.3812 10.4487 10.2741C11.7887 10.1653 13.5071 10.1637 15.9577 10.1637V6.16373ZM5.95324 7.31558C3.95316 8.32904 2.32499 9.94725 1.30392 11.9401L4.86386 13.7641C5.4984 12.5256 6.51199 11.5167 7.76122 10.8837L5.95324 7.31558ZM4.23122 16.7281C4.33198 15.2357 4.5388 14.3985 4.86386 13.7641L1.30392 11.9401C0.616868 13.2811 0.355821 14.7477 0.240308 16.4586L4.23122 16.7281ZM38.5826 16.4586C38.4671 14.7477 38.206 13.2811 37.519 11.9401L33.9591 13.7641C34.2841 14.3985 34.4909 15.2357 34.5917 16.7281L38.5826 16.4586ZM34.5917 16.7281C34.6011 16.867 34.6079 16.9685 34.6124 17.0555C34.617 17.1418 34.6179 17.189 34.6176 17.2151C34.6175 17.239 34.6163 17.2265 34.621 17.192C34.6262 17.1534 34.6365 17.1029 34.6542 17.0479L38.4616 18.2742C38.6895 17.5666 38.6091 16.8507 38.5826 16.4586L34.5917 16.7281ZM34.6542 17.0479C34.6744 16.9855 34.6966 16.944 34.7139 16.9166C34.7313 16.8892 34.7589 16.8518 34.8058 16.8076L37.548 19.7197C37.9631 19.3288 38.2865 18.818 38.4616 18.2742L34.6542 17.0479ZM0.240308 16.4586C0.21383 16.8508 0.133379 17.5666 0.36128 18.2742L4.16867 17.0479C4.1864 17.1029 4.19667 17.1534 4.2019 17.192C4.20657 17.2265 4.20546 17.239 4.20527 17.2151C4.20505 17.189 4.20595 17.1418 4.21047 17.0555C4.21503 16.9685 4.22184 16.867 4.23122 16.7281L0.240308 16.4586ZM0.36128 18.2742C0.536435 18.818 0.859788 19.3288 1.2749 19.7197L4.01711 16.8076C4.06404 16.8518 4.09165 16.8892 4.10898 16.9166C4.12629 16.944 4.14856 16.9855 4.16867 17.0479L0.36128 18.2742ZM18.6919 23.0437H20.131V19.0437H18.6919V23.0437ZM20.2896 23.1903V26.0525H24.2896V23.1903H20.2896ZM20.131 26.1992H18.6919V30.1992H20.131V26.1992ZM18.5333 26.0525V23.1903H14.5333V26.0525H18.5333ZM18.6919 26.1992C18.5939 26.1992 18.5333 26.1231 18.5333 26.0525H14.5333C14.5333 28.3531 16.4057 30.1992 18.6919 30.1992V26.1992ZM20.2896 26.0525C20.2896 26.1231 20.229 26.1992 20.131 26.1992V30.1992C22.4172 30.1992 24.2896 28.3531 24.2896 26.0525H20.2896ZM20.131 23.0437C20.229 23.0437 20.2896 23.1198 20.2896 23.1903H24.2896C24.2896 20.8898 22.4172 19.0437 20.131 19.0437V23.0437ZM18.6919 19.0437C16.4057 19.0437 14.5333 20.8898 14.5333 23.1903H18.5333C18.5333 23.1198 18.5939 23.0437 18.6919 23.0437V19.0437ZM17.9976 4.44434H20.8757V0.444336H17.9976V4.44434ZM23.1928 6.73765V8.16876H27.1928V6.73765H23.1928ZM11.6804 6.73765V8.16876H15.6804V6.73765H11.6804ZM20.8757 4.44434C22.1659 4.44434 23.1928 5.48152 23.1928 6.73765H27.1928C27.1928 3.25152 24.3541 0.444336 20.8757 0.444336V4.44434ZM17.9976 0.444336C14.5192 0.444336 11.6804 3.25152 11.6804 6.73765H15.6804C15.6804 5.48152 16.7074 4.44434 17.9976 4.44434V0.444336ZM23.1703 21.7374L21.9702 21.9316L22.609 25.8802L23.8091 25.6861L23.1703 21.7374ZM37.1545 20.03L37.3749 19.8652L34.979 16.6621L34.7586 16.8269L37.1545 20.03ZM15.0138 25.6861L16.214 25.8802L16.8527 21.9316L15.6526 21.7374L15.0138 25.6861ZM4.06429 16.8269L3.84396 16.6621L1.44805 19.8652L1.66837 20.03L4.06429 16.8269ZM15.6526 21.7374C11.4418 21.0562 7.46421 19.3701 4.06429 16.8269L1.66837 20.03C5.58728 22.9614 10.1682 24.9022 15.0138 25.6861L15.6526 21.7374ZM23.8091 25.6861C28.6547 24.9022 33.2356 22.9614 37.1545 20.03L34.7586 16.8269C31.3587 19.3701 27.3811 21.0562 23.1703 21.7374L23.8091 25.6861ZM38.6547 25.3117L38.5578 17.6358L34.5581 17.6863L34.655 25.3622L38.6547 25.3117ZM4.16797 25.3525L4.23571 16.6088L0.235825 16.5778L0.168094 25.3215L4.16797 25.3525Z" fill="#A117E8"/>
</svg>
