<svg width="34" height="34" viewBox="0 0 34 34" fill="none" xmlns="http://www.w3.org/2000/svg">
<g id="maki:arrow">
<path id="Vector" d="M15.2021 28.8025C14.777 29.2275 14.2006 29.4662 13.5995 29.4662C12.9985 29.4662 12.4221 29.2275 11.997 28.8025L1.79701 18.6025C1.37208 18.1775 1.13336 17.601 1.13336 17C1.13336 16.399 1.37208 15.8225 1.79701 15.3975L11.997 5.19747C12.4245 4.78458 12.9971 4.55611 13.5914 4.56128C14.1857 4.56644 14.7542 4.80483 15.1745 5.22508C15.5947 5.64534 15.8331 6.21385 15.8383 6.80816C15.8434 7.40248 15.615 7.97504 15.2021 8.40254L9.06621 14.7333L30.5995 14.7333C31.2007 14.7333 31.7772 14.9721 32.2023 15.3972C32.6274 15.8223 32.8662 16.3988 32.8662 17C32.8662 17.6012 32.6274 18.1777 32.2023 18.6028C31.7772 19.0279 31.2007 19.2667 30.5995 19.2667L9.06621 19.2667L15.2021 25.5975C15.627 26.0225 15.8657 26.599 15.8657 27.2C15.8657 27.801 15.627 28.3775 15.2021 28.8025Z" fill="white"/>
</g>
</svg>
