<svg width="70" height="70" viewBox="0 0 70 70" fill="none" xmlns="http://www.w3.org/2000/svg">
<path d="M11.271 12.1616H58.4324V59.0255H11.271V12.1616Z" fill="white"/>
<path d="M14 56V26.67H22.96V56H14ZM23.24 18.55C23.31 21.07 21.42 23.1 18.41 23.1C15.61 23.1 13.79 21.07 13.79 18.55C13.79 15.96 15.68 14 18.55 14C21.42 14 23.24 15.96 23.24 18.55ZM46.76 56V39.76C46.76 35.98 45.5 33.39 42.21 33.39C39.76 33.39 38.29 35.14 37.59 36.82C37.38 37.45 37.31 38.29 37.31 39.13V56H28.35V36.05C28.35 32.41 28.21 29.33 28.14 26.67H35.91L36.33 30.8H36.47C37.66 28.84 40.6 26.04 45.43 26.04C51.31 26.04 55.79 30.03 55.79 38.71V56H46.76ZM70 6.16C70 2.8 67.2 0 63.84 0H6.16C2.8 0 0 2.8 0 6.16V63.84C0 67.2 2.8 70 6.16 70H63.84C67.2 70 70 67.2 70 63.84V6.16Z" fill="#1D87BD"/>
</svg>
