<svg width="34" height="34" viewBox="0 0 34 34" fill="none" xmlns="http://www.w3.org/2000/svg">
<g id="Icon / Line / Map Point">
<g id="Vector">
<path d="M25.5 15.5756C25.5 19.6873 19.3825 25.3699 17.5271 26.9988C17.2218 27.2668 16.7782 27.2668 16.4729 26.9988C14.6175 25.3699 8.5 19.6873 8.5 15.5756C8.5 10.7288 12.3056 6.7998 17 6.7998C21.6944 6.7998 25.5 10.7288 25.5 15.5756Z" stroke="black" strokeWidth="2"/>
<path d="M19.8333 14.1754C19.8333 15.8048 18.5648 17.1257 17 17.1257C15.4352 17.1257 14.1667 15.8048 14.1667 14.1754C14.1667 12.5461 15.4352 11.2252 17 11.2252C18.5648 11.2252 19.8333 12.5461 19.8333 14.1754Z" stroke="black" strokeWidth="2"/>
</g>
</g>
</svg>
