<svg width="27" height="27" viewBox="0 0 27 27" fill="none" xmlns="http://www.w3.org/2000/svg">
<g id="Icon / Line / Chat Square Alt">
<g id="Group 1406">
<path id="Rectangle 1316" d="M17.5499 4.72461H9.4499C7.21315 4.72461 5.3999 6.61341 5.3999 8.94337V13.1059C5.3999 15.4358 7.21315 17.3246 9.4499 17.3246C9.82269 17.3246 10.1249 17.6394 10.1249 18.0278V20.5723C10.1249 20.9012 10.5196 21.05 10.7217 20.7974L13.2975 17.5776C13.4258 17.4173 13.6157 17.3246 13.8161 17.3246H17.5499C19.7867 17.3246 21.5999 15.4358 21.5999 13.1059V8.94337C21.5999 6.61341 19.7867 4.72461 17.5499 4.72461Z" stroke="black" strokeWidth="1.5"/>
<g id="Vector">
<path d="M12.15 11.1375C12.15 11.6967 11.6967 12.15 11.1375 12.15C10.5783 12.15 10.125 11.6967 10.125 11.1375C10.125 10.5783 10.5783 10.125 11.1375 10.125C11.6967 10.125 12.15 10.5783 12.15 11.1375Z" fill="black"/>
<path d="M16.875 11.1375C16.875 11.6967 16.4217 12.15 15.8625 12.15C15.3033 12.15 14.85 11.6967 14.85 11.1375C14.85 10.5783 15.3033 10.125 15.8625 10.125C16.4217 10.125 16.875 10.5783 16.875 11.1375Z" fill="black"/>
</g>
</g>
</g>
</svg>
