<svg width="34" height="34" viewBox="0 0 34 34" fill="none" xmlns="http://www.w3.org/2000/svg">
<g id="maki:arrow">
<path id="Vector" d="M18.7979 5.19746C19.223 4.77253 19.7994 4.53381 20.4005 4.53381C21.0015 4.53381 21.5779 4.77253 22.003 5.19746L32.203 15.3975C32.6279 15.8225 32.8666 16.399 32.8666 17C32.8666 17.601 32.6279 18.1775 32.203 18.6025L22.003 28.8025C21.5755 29.2154 21.0029 29.4439 20.4086 29.4387C19.8143 29.4336 19.2458 29.1952 18.8255 28.7749C18.4053 28.3547 18.1669 27.7861 18.1617 27.1918C18.1566 26.5975 18.385 26.025 18.7979 25.5975L24.9338 19.2667H3.40046C2.7993 19.2667 2.22276 19.0279 1.79768 18.6028C1.3726 18.1777 1.13379 17.6012 1.13379 17C1.13379 16.3988 1.3726 15.8223 1.79768 15.3972C2.22276 14.9721 2.7993 14.7333 3.40046 14.7333H24.9338L18.7979 8.40253C18.373 7.97747 18.1343 7.40103 18.1343 6.8C18.1343 6.19896 18.373 5.62253 18.7979 5.19746Z" fill="white"/>
</g>
</svg>
