<svg width="51" height="46" viewBox="0 0 51 46" fill="none" xmlns="http://www.w3.org/2000/svg">
<path id="Vector" d="M15.6667 14.375H35.3333M15.6667 23.875H30.4167M40.25 2.5C42.206 2.5 44.0818 3.25067 45.4649 4.58686C46.848 5.92306 47.625 7.73533 47.625 9.625V28.625C47.625 30.5147 46.848 32.3269 45.4649 33.6631C44.0818 34.9993 42.206 35.75 40.25 35.75H27.9583L15.6667 42.875V35.75H10.75C8.79403 35.75 6.91817 34.9993 5.53509 33.6631C4.15201 32.3269 3.375 30.5147 3.375 28.625V9.625C3.375 7.73533 4.15201 5.92306 5.53509 4.58686C6.91817 3.25067 8.79403 2.5 10.75 2.5H40.25Z" stroke="black" strokeWidth="5" strokeLinecap="round" strokeLinejoin="round"/>
</svg>
