<svg width="65" height="65" viewBox="0 0 65 65" fill="none" xmlns="http://www.w3.org/2000/svg">
<g id="download 7">
<path id="Vector" d="M12.1875 6.09375C12.1875 3.85009 14.0063 2.03125 16.25 2.03125H36.4898C37.6159 2.03125 38.6915 2.49862 39.4597 3.32183L45.3645 9.64844L53.7511 18.6341C54.4533 19.3863 54.8438 20.3769 54.8438 21.4059V58.9062C54.8438 61.15 53.025 62.9688 50.7812 62.9688H16.25C14.0063 62.9688 12.1875 61.15 12.1875 58.9062V6.09375Z" fill="#E4E2E0"/>
<g id="Mask group">
<mask id="mask0_173_408" style="mask-type:alpha" maskUnits="userSpaceOnUse" x="12" y="2" width="43" height="61">
<g id="Group">
<path id="Vector_2" d="M12.1875 6.09375C12.1875 3.85009 14.0063 2.03125 16.25 2.03125H38.8596C39.9858 2.03125 41.0613 2.49862 41.8295 3.32183L46.5495 8.37891L53.7511 16.095C54.4533 16.8472 54.8438 17.8379 54.8438 18.8669V58.9062C54.8438 61.15 53.025 62.9688 50.7812 62.9688H16.25C14.0063 62.9688 12.1875 61.15 12.1875 58.9062V6.09375Z" fill="black"/>
</g>
</mask>
<g mask="url(#mask0_173_408)">
<g id="Group_2">
<path id="Vector_3" d="M55.4336 42.6562H12.1875V62.9688H55.4336V42.6562Z" fill="#2557A7"/>
<path id="Vector_4" d="M61.9531 22.3438H35.8853V-5.58594L48.9192 8.37891L61.9531 22.3438Z" fill="#D4D2D0"/>
<path id="Vector_5" d="M45.3646 12.1875H33.5156V24.8828H45.3646V12.1875Z" fill="#E4E2E0"/>
<path id="Vector_6" d="M49.9956 13.0866C51.2074 14.385 50.2866 16.5038 48.5105 16.5038H43.3672C42.2453 16.5038 41.3359 15.5944 41.3359 14.4726V8.96185C41.3359 7.11825 43.5941 6.22812 44.852 7.57589L47.2603 10.1562L49.9956 13.0866Z" fill="#D4D2D0"/>
</g>
</g>
</g>
<path id="Vector_7" d="M39.3045 2.03125H24.4087C23.2869 2.03125 22.3774 2.94067 22.3774 4.0625V20.3125C22.3774 21.4343 23.2869 22.3438 24.4087 22.3438H39.3045C40.4263 22.3438 41.3358 21.4343 41.3358 20.3125V4.0625C41.3358 2.94067 40.4263 2.03125 39.3045 2.03125Z" fill="#E4E2E0"/>
<path id="Vector_8" d="M52.8123 16.5039H37.9165C36.7947 16.5039 35.8853 17.4133 35.8853 18.5352V34.7852C35.8853 35.907 36.7947 36.8164 37.9165 36.8164H52.8123C53.9342 36.8164 54.8436 35.907 54.8436 34.7852V18.5352C54.8436 17.4133 53.9342 16.5039 52.8123 16.5039Z" fill="#E4E2E0"/>
<path id="Vector_9" d="M34.4391 8.125H19.02C18.4591 8.125 18.0044 8.57971 18.0044 9.14062C18.0044 9.70154 18.4591 10.1562 19.02 10.1562H34.4391C35 10.1562 35.4547 9.70154 35.4547 9.14062C35.4547 8.57971 35 8.125 34.4391 8.125Z" fill="#D4D2D0"/>
<path id="Vector_10" d="M34.4391 12.1875H19.02C18.4591 12.1875 18.0044 12.6422 18.0044 13.2031C18.0044 13.764 18.4591 14.2188 19.02 14.2188H34.4391C35 14.2188 35.4547 13.764 35.4547 13.2031C35.4547 12.6422 35 12.1875 34.4391 12.1875Z" fill="#D4D2D0"/>
<path id="Vector_11" d="M34.4391 16.25H19.02C18.4591 16.25 18.0044 16.7047 18.0044 17.2656C18.0044 17.8265 18.4591 18.2812 19.02 18.2812H34.4391C35 18.2812 35.4547 17.8265 35.4547 17.2656C35.4547 16.7047 35 16.25 34.4391 16.25Z" fill="#D4D2D0"/>
<path id="Vector_12" d="M48.0114 22.3438H19.02C18.4591 22.3438 18.0044 22.7985 18.0044 23.3594C18.0044 23.9203 18.4591 24.375 19.02 24.375H48.0114C48.5724 24.375 49.0271 23.9203 49.0271 23.3594C49.0271 22.7985 48.5724 22.3438 48.0114 22.3438Z" fill="#D4D2D0"/>
<path id="Vector_13" d="M48.0114 26.4062H19.02C18.4591 26.4062 18.0044 26.861 18.0044 27.4219C18.0044 27.9828 18.4591 28.4375 19.02 28.4375H48.0114C48.5724 28.4375 49.0271 27.9828 49.0271 27.4219C49.0271 26.861 48.5724 26.4062 48.0114 26.4062Z" fill="#D4D2D0"/>
<path id="Vector_14" d="M48.0114 30.4688H19.02C18.4591 30.4688 18.0044 30.9235 18.0044 31.4844C18.0044 32.0453 18.4591 32.5 19.02 32.5H48.0114C48.5724 32.5 49.0271 32.0453 49.0271 31.4844C49.0271 30.9235 48.5724 30.4688 48.0114 30.4688Z" fill="#D4D2D0"/>
<path id="Vector_15" d="M23.898 52.269H24.5049C25.0723 52.269 25.4968 52.1579 25.7785 51.9359C26.0601 51.7096 26.201 51.3823 26.201 50.954C26.201 50.5215 26.082 50.202 25.8439 49.9958C25.6099 49.7894 25.2409 49.6863 24.7371 49.6863H23.898V52.269ZM28.0637 50.8884C28.0637 51.8248 27.77 52.5408 27.1829 53.0368C26.5998 53.5326 25.7686 53.7806 24.6894 53.7806H23.898V56.8751H22.0532V48.1748H24.8324C25.8876 48.1748 26.6889 48.4029 27.2366 48.8591C27.7878 49.3115 28.0637 49.9879 28.0637 50.8884ZM36.9246 52.4416C36.9246 53.8739 36.5159 54.9708 35.6988 55.7325C34.8854 56.4942 33.7091 56.8751 32.1699 56.8751H29.7062V48.1748H32.4376C33.8578 48.1748 34.9608 48.5498 35.7463 49.2995C36.5318 50.0492 36.9246 51.0968 36.9246 52.4416ZM35.0083 52.4892C35.0083 50.6206 34.1832 49.6863 32.5328 49.6863H31.5509V55.3516H32.3423C34.1197 55.3516 35.0083 54.3975 35.0083 52.4892ZM40.5427 56.8751H38.7278V48.1748H43.7147V49.6863H40.5427V51.9298H43.4945V53.4353H40.5427V56.8751Z" fill="white"/>
</g>
</svg>
