<svg width="14" height="27" viewBox="0 0 14 27" fill="none" xmlns="http://www.w3.org/2000/svg">
<mask id="path-1-outside-1_464_249" maskUnits="userSpaceOnUse" x="-1" y="-1" width="16" height="29" fill="black">
<rect fill="white" x="-1" y="-1" width="16" height="29"/>
<path d="M7.20898 18.9336H5.82031C5.83203 18.0195 5.92578 17.2285 6.10156 16.5605C6.27734 15.8809 6.57031 15.248 6.98047 14.6621C7.39062 14.0762 7.94727 13.4551 8.65039 12.7988C9.33008 12.1309 9.91602 11.5156 10.4082 10.9531C10.9121 10.3906 11.2988 9.76953 11.5684 9.08984C11.8379 8.39844 11.9727 7.54297 11.9727 6.52344C11.9727 5.51563 11.791 4.625 11.4277 3.85156C11.0762 3.07812 10.543 2.46875 9.82812 2.02344C9.11328 1.57813 8.22266 1.35547 7.15625 1.35547C6.11328 1.35547 5.20508 1.56641 4.43164 1.98828C3.66992 2.39844 3.07227 2.98438 2.63867 3.74609C2.2168 4.49609 1.99414 5.375 1.9707 6.38281H0.564453C0.587891 5.04688 0.898438 3.9043 1.49609 2.95508C2.09375 2.00586 2.88477 1.28516 3.86914 0.792969C4.86523 0.300781 5.96094 0.0546875 7.15625 0.0546875C8.50391 0.0546875 9.63477 0.335938 10.5488 0.898438C11.4746 1.44922 12.1777 2.2168 12.6582 3.20117C13.1387 4.17383 13.3789 5.28711 13.3789 6.54102C13.3789 7.57227 13.2266 8.49219 12.9219 9.30078C12.6172 10.1094 12.166 10.877 11.5684 11.6035C10.9824 12.3184 10.2617 13.0684 9.40625 13.8535C8.57422 14.5098 8 15.2773 7.68359 16.1562C7.36719 17.0234 7.20898 17.9492 7.20898 18.9336ZM5.45117 24.9805C5.45117 24.6641 5.55664 24.3945 5.76758 24.1719C5.97852 23.9492 6.25391 23.8379 6.59375 23.8379C6.93359 23.8379 7.21484 23.9492 7.4375 24.1719C7.66016 24.3945 7.77148 24.6641 7.77148 24.9805C7.77148 25.2969 7.66016 25.5664 7.4375 25.7891C7.21484 26.0117 6.93359 26.123 6.59375 26.123C6.25391 26.123 5.97852 26.0117 5.76758 25.7891C5.55664 25.5664 5.45117 25.2969 5.45117 24.9805Z"/>
</mask>
<path d="M7.20898 18.9336H5.82031C5.83203 18.0195 5.92578 17.2285 6.10156 16.5605C6.27734 15.8809 6.57031 15.248 6.98047 14.6621C7.39062 14.0762 7.94727 13.4551 8.65039 12.7988C9.33008 12.1309 9.91602 11.5156 10.4082 10.9531C10.9121 10.3906 11.2988 9.76953 11.5684 9.08984C11.8379 8.39844 11.9727 7.54297 11.9727 6.52344C11.9727 5.51563 11.791 4.625 11.4277 3.85156C11.0762 3.07812 10.543 2.46875 9.82812 2.02344C9.11328 1.57813 8.22266 1.35547 7.15625 1.35547C6.11328 1.35547 5.20508 1.56641 4.43164 1.98828C3.66992 2.39844 3.07227 2.98438 2.63867 3.74609C2.2168 4.49609 1.99414 5.375 1.9707 6.38281H0.564453C0.587891 5.04688 0.898438 3.9043 1.49609 2.95508C2.09375 2.00586 2.88477 1.28516 3.86914 0.792969C4.86523 0.300781 5.96094 0.0546875 7.15625 0.0546875C8.50391 0.0546875 9.63477 0.335938 10.5488 0.898438C11.4746 1.44922 12.1777 2.2168 12.6582 3.20117C13.1387 4.17383 13.3789 5.28711 13.3789 6.54102C13.3789 7.57227 13.2266 8.49219 12.9219 9.30078C12.6172 10.1094 12.166 10.877 11.5684 11.6035C10.9824 12.3184 10.2617 13.0684 9.40625 13.8535C8.57422 14.5098 8 15.2773 7.68359 16.1562C7.36719 17.0234 7.20898 17.9492 7.20898 18.9336ZM5.45117 24.9805C5.45117 24.6641 5.55664 24.3945 5.76758 24.1719C5.97852 23.9492 6.25391 23.8379 6.59375 23.8379C6.93359 23.8379 7.21484 23.9492 7.4375 24.1719C7.66016 24.3945 7.77148 24.6641 7.77148 24.9805C7.77148 25.2969 7.66016 25.5664 7.4375 25.7891C7.21484 26.0117 6.93359 26.123 6.59375 26.123C6.25391 26.123 5.97852 26.0117 5.76758 25.7891C5.55664 25.5664 5.45117 25.2969 5.45117 24.9805Z" fill="black"/>
<path d="M7.20898 18.9336V19.9336H8.20898V18.9336H7.20898ZM5.82031 18.9336L4.82039 18.9208L4.80741 19.9336H5.82031V18.9336ZM6.10156 16.5605L7.06865 16.815L7.06971 16.8109L6.10156 16.5605ZM8.65039 12.7988L9.33271 13.5299L9.34213 13.5211L9.35132 13.5121L8.65039 12.7988ZM10.4082 10.9531L9.66332 10.2858L9.65563 10.2946L10.4082 10.9531ZM11.5684 9.08984L12.498 9.45848L12.5001 9.45305L11.5684 9.08984ZM11.4277 3.85156L10.5173 4.2654L10.5226 4.2767L11.4277 3.85156ZM4.43164 1.98828L4.90575 2.86877L4.91049 2.86618L4.43164 1.98828ZM2.63867 3.74609L1.7696 3.25139L1.7671 3.25583L2.63867 3.74609ZM1.9707 6.38281V7.38281H2.94772L2.97043 6.40606L1.9707 6.38281ZM0.564453 6.38281L-0.435393 6.36527L-0.453245 7.38281H0.564453V6.38281ZM3.86914 0.792969L3.42615 -0.103568L3.42193 -0.101459L3.86914 0.792969ZM10.5488 0.898438L10.0247 1.7501L10.0311 1.75402L10.0375 1.75784L10.5488 0.898438ZM12.6582 3.20117L11.7595 3.63981L11.7616 3.64406L12.6582 3.20117ZM11.5684 11.6035L10.7961 10.9682L10.795 10.9696L11.5684 11.6035ZM9.40625 13.8535L10.0255 14.6387L10.0549 14.6155L10.0824 14.5903L9.40625 13.8535ZM7.68359 16.1562L8.62302 16.499L8.62448 16.495L7.68359 16.1562ZM7.20898 17.9336H5.82031V19.9336H7.20898V17.9336ZM6.82023 18.9464C6.83122 18.0894 6.91906 17.3834 7.06864 16.815L5.13449 16.3061C4.9325 17.0736 4.83284 17.9497 4.82039 18.9208L6.82023 18.9464ZM7.06971 16.8109C7.21499 16.2492 7.45678 15.7255 7.7997 15.2356L6.16124 14.0886C5.68384 14.7706 5.33969 15.5126 5.13342 16.3102L7.06971 16.8109ZM7.7997 15.2356C8.15885 14.7225 8.66436 14.1537 9.33271 13.5299L7.96807 12.0678C7.23017 12.7565 6.6224 13.4298 6.16124 14.0886L7.7997 15.2356ZM9.35132 13.5121C10.0443 12.831 10.6483 12.1973 11.1608 11.6116L9.65563 10.2946C9.18372 10.8339 8.61584 11.4307 7.94946 12.0856L9.35132 13.5121ZM11.153 11.6204C11.733 10.9729 12.1835 10.2514 12.4979 9.45847L10.6388 8.72122C10.4142 9.28765 10.0912 9.80831 9.66337 10.2859L11.153 11.6204ZM12.5001 9.45305C12.8282 8.6114 12.9727 7.62391 12.9727 6.52344H10.9727C10.9727 7.46203 10.8476 8.18547 10.6367 8.72664L12.5001 9.45305ZM12.9727 6.52344C12.9727 5.39479 12.7689 4.35466 12.3329 3.42643L10.5226 4.2767C10.8132 4.89534 10.9727 5.63646 10.9727 6.52344H12.9727ZM12.3381 3.43776C11.9057 2.48657 11.2406 1.72516 10.3569 1.17466L9.29938 2.87222C9.84537 3.21234 10.2466 3.66968 10.5174 4.26537L12.3381 3.43776ZM10.3569 1.17466C9.44617 0.607338 8.36028 0.355469 7.15625 0.355469V2.35547C8.08504 2.35547 8.78039 2.54891 9.29938 2.87222L10.3569 1.17466ZM7.15625 0.355469C5.97673 0.355469 4.89795 0.594845 3.95279 1.11039L4.91049 2.86618C5.51221 2.53797 6.24983 2.35547 7.15625 2.35547V0.355469ZM3.95754 1.10781C3.0283 1.60817 2.29476 2.32883 1.76961 3.2514L3.50774 4.24079C3.84977 3.63992 4.31155 3.1887 4.90574 2.86875L3.95754 1.10781ZM1.7671 3.25583C1.25213 4.17132 0.997566 5.21607 0.970973 6.35956L2.97043 6.40606C2.99072 5.53393 3.18146 4.82086 3.51025 4.23635L1.7671 3.25583ZM1.9707 5.38281H0.564453V7.38281H1.9707V5.38281ZM1.5643 6.40035C1.58515 5.21181 1.85913 4.25532 2.34233 3.48789L0.649861 2.42227C-0.0622542 3.55327 -0.40937 4.88194 -0.435393 6.36527L1.5643 6.40035ZM2.34233 3.48789C2.84451 2.6903 3.49883 2.09616 4.31635 1.6874L3.42193 -0.101459C2.27071 0.474152 1.34299 1.32142 0.649861 2.42227L2.34233 3.48789ZM4.31213 1.6895C5.16019 1.27045 6.10269 1.05469 7.15625 1.05469V-0.945312C5.81918 -0.945312 4.57028 -0.668892 3.42615 -0.103558L4.31213 1.6895ZM7.15625 1.05469C8.36579 1.05469 9.30397 1.30655 10.0247 1.7501L11.0729 0.0467792C9.96556 -0.634676 8.64202 -0.945312 7.15625 -0.945312V1.05469ZM10.0375 1.75784C10.793 2.20731 11.3629 2.82728 11.7595 3.63981L13.5569 2.76254C12.9925 1.60631 12.1562 0.691131 11.0601 0.039031L10.0375 1.75784ZM11.7616 3.64406C12.1642 4.45902 12.3789 5.41678 12.3789 6.54102H14.3789C14.3789 5.15744 14.1131 3.88864 13.5548 2.75828L11.7616 3.64406ZM12.3789 6.54102C12.3789 7.47455 12.241 8.27176 11.9861 8.94817L13.8576 9.65339C14.2121 8.71262 14.3789 7.66998 14.3789 6.54102H12.3789ZM11.9861 8.94817C11.7233 9.64552 11.3303 10.3188 10.7961 10.9682L12.3406 12.2388C13.0018 11.4351 13.511 10.5732 13.8576 9.65339L11.9861 8.94817ZM10.795 10.9696C10.2454 11.6401 9.55913 12.3559 8.73007 13.1168L10.0824 14.5903C10.9643 13.7809 11.7194 12.9967 12.3418 12.2374L10.795 10.9696ZM8.78696 13.0683C7.82833 13.8245 7.13066 14.7399 6.74271 15.8175L8.62448 16.495C8.86934 15.8148 9.3201 15.1951 10.0255 14.6387L8.78696 13.0683ZM6.74417 15.8135C6.3851 16.7976 6.20898 17.8401 6.20898 18.9336H8.20898C8.20898 18.0583 8.34928 17.2493 8.62302 16.499L6.74417 15.8135ZM6.45117 24.9805C6.45117 24.911 6.46464 24.8901 6.49353 24.8596L5.04163 23.4841C4.64864 23.8989 4.45117 24.4172 4.45117 24.9805H6.45117ZM6.49353 24.8596C6.49985 24.853 6.50337 24.8505 6.50397 24.8501C6.50449 24.8497 6.50511 24.8493 6.50711 24.8485C6.50981 24.8474 6.53393 24.8379 6.59375 24.8379V22.8379C6.01212 22.8379 5.46285 23.0395 5.04163 23.4841L6.49353 24.8596ZM6.59375 24.8379C6.6916 24.8379 6.71108 24.8597 6.73039 24.879L8.14461 23.4648C7.71861 23.0388 7.17559 22.8379 6.59375 22.8379V24.8379ZM6.73039 24.879C6.75612 24.9047 6.76222 24.9191 6.76373 24.9228C6.76527 24.9265 6.77148 24.942 6.77148 24.9805H8.77148C8.77148 24.4003 8.55582 23.876 8.14461 23.4648L6.73039 24.879ZM6.77148 24.9805C6.77148 25.0189 6.76527 25.0344 6.76373 25.0382C6.76222 25.0418 6.75612 25.0562 6.73039 25.082L8.14461 26.4962C8.55582 26.085 8.77148 25.5606 8.77148 24.9805H6.77148ZM6.73039 25.082C6.71108 25.1013 6.6916 25.123 6.59375 25.123V27.123C7.17559 27.123 7.71861 26.9222 8.14461 26.4962L6.73039 25.082ZM6.59375 25.123C6.53393 25.123 6.50981 25.1135 6.50711 25.1124C6.50511 25.1116 6.50449 25.1112 6.50397 25.1108C6.50337 25.1104 6.49985 25.108 6.49353 25.1013L5.04163 26.4768C5.46285 26.9214 6.01212 27.123 6.59375 27.123V25.123ZM6.49353 25.1013C6.46464 25.0708 6.45117 25.05 6.45117 24.9805H4.45117C4.45117 25.5438 4.64864 26.062 5.04163 26.4768L6.49353 25.1013Z" fill="black" mask="url(#path-1-outside-1_464_249)"/>
</svg>
