<svg width="34" height="34" viewBox="0 0 34 34" fill="none" xmlns="http://www.w3.org/2000/svg">
<g id="maki:arrow">
<path id="Vector" d="M18.7974 5.19746C19.2225 4.77253 19.7989 4.53381 20.4 4.53381C21.001 4.53381 21.5774 4.77253 22.0025 5.19746L32.2025 15.3975C32.6274 15.8225 32.8661 16.399 32.8661 17C32.8661 17.601 32.6274 18.1775 32.2025 18.6025L22.0025 28.8025C21.575 29.2154 21.0024 29.4439 20.4081 29.4387C19.8138 29.4336 19.2453 29.1952 18.825 28.7749C18.4048 28.3547 18.1664 27.7861 18.1612 27.1918C18.1561 26.5975 18.3845 26.025 18.7974 25.5975L24.9333 19.2667H3.39997C2.79881 19.2667 2.22227 19.0279 1.79719 18.6028C1.37211 18.1777 1.1333 17.6012 1.1333 17C1.1333 16.3988 1.37211 15.8223 1.79719 15.3972C2.22227 14.9721 2.79881 14.7333 3.39997 14.7333H24.9333L18.7974 8.40253C18.3725 7.97747 18.1338 7.40103 18.1338 6.8C18.1338 6.19896 18.3725 5.62253 18.7974 5.19746Z" fill="white"/>
</g>
</svg>
