<svg width="47" height="47" viewBox="0 0 47 47" fill="none" xmlns="http://www.w3.org/2000/svg">
<path id="Vector" d="M33.5906 29.5598H31.4677L30.7153 28.8342C33.4398 25.674 34.9372 21.6396 34.9342 17.4671C34.9342 14.0125 33.9098 10.6354 31.9905 7.76292C30.0712 4.89046 27.3432 2.65166 24.1515 1.32961C20.9598 0.00756823 17.4478 -0.338339 14.0595 0.335634C10.6712 1.00961 7.55883 2.67319 5.11601 5.11601C2.67319 7.55883 1.00961 10.6712 0.335634 14.0595C-0.338339 17.4478 0.00756823 20.9598 1.32961 24.1515C2.65166 27.3432 4.89046 30.0712 7.76292 31.9905C10.6354 33.9098 14.0125 34.9342 17.4671 34.9342C21.7936 34.9342 25.7707 33.3488 28.8342 30.7153L29.5598 31.4677V33.5906L42.996 47L47 42.996L33.5906 29.5598ZM17.4671 29.5598C10.7759 29.5598 5.37451 24.1584 5.37451 17.4671C5.37451 10.7759 10.7759 5.37451 17.4671 5.37451C24.1584 5.37451 29.5598 10.7759 29.5598 17.4671C29.5598 24.1584 24.1584 29.5598 17.4671 29.5598Z" fill="black" fill-opacity="0.8"/>
</svg>
