<svg width="35" height="35" viewBox="0 0 35 35" fill="none" xmlns="http://www.w3.org/2000/svg">
<g id="mingcute:down-line" clipPath="url(#clip0_171_188)">
<rect width="35" height="35" fill="white"/>
<g id="Group">
<path id="Vector" fill-rule="evenodd" clip-rule="evenodd" d="M18.531 22.906C18.2575 23.1794 17.8867 23.333 17.5 23.333C17.1133 23.333 16.7424 23.1794 16.4689 22.906L8.21914 14.6562C8.07985 14.5217 7.96875 14.3608 7.89232 14.1829C7.81589 14.0049 7.77566 13.8136 7.77398 13.6199C7.7723 13.4263 7.8092 13.2343 7.88252 13.055C7.95585 12.8758 8.06414 12.713 8.20106 12.5761C8.33799 12.4391 8.50081 12.3308 8.68004 12.2575C8.85926 12.1842 9.05129 12.1473 9.24493 12.149C9.43857 12.1507 9.62993 12.1909 9.80785 12.2673C9.98577 12.3438 10.1467 12.4549 10.2812 12.5941L17.5 19.8129L24.7187 12.5941C24.9938 12.3285 25.3621 12.1815 25.7445 12.1848C26.1269 12.1881 26.4927 12.3415 26.763 12.6119C27.0334 12.8823 27.1868 13.2481 27.1901 13.6304C27.1934 14.0128 27.0465 14.3812 26.7808 14.6562L18.531 22.906Z" fill="black"/>
</g>
</g>
<defs>
<clipPath id="clip0_171_188">
<rect width="35" height="35" fill="white"/>
</clipPath>
</defs>
</svg>
