<svg width="209" height="206" viewBox="0 0 209 206" fill="none" xmlns="http://www.w3.org/2000/svg">
<path id="Vector" d="M64.5207 104.558C60.729 100.543 54.3999 100.361 50.3844 104.153C46.3689 107.945 46.1875 114.274 49.9793 118.29L64.5207 104.558ZM85.8864 141.75L78.6156 148.616C80.5048 150.616 83.1348 151.75 85.8864 151.75C88.638 151.75 91.268 150.616 93.1571 148.616L85.8864 141.75ZM159.021 78.8656C162.812 74.8501 162.631 68.521 158.616 64.7293C154.6 60.9375 148.271 61.1189 144.479 65.1344L159.021 78.8656ZM49.9793 118.29L78.6156 148.616L93.1571 134.884L64.5207 104.558L49.9793 118.29ZM93.1571 148.616L159.021 78.8656L144.479 65.1344L78.6156 134.884L93.1571 148.616ZM189 103C189 148.689 151.32 186 104.5 186V206C162.062 206 209 160.036 209 103H189ZM104.5 186C57.6805 186 20 148.689 20 103H0C0 160.036 46.9377 206 104.5 206V186ZM20 103C20 57.3106 57.6805 20 104.5 20V0C46.9377 0 0 45.9644 0 103H20ZM104.5 20C151.32 20 189 57.3106 189 103H209C209 45.9644 162.062 0 104.5 0V20Z" fill="#1B9800"/>
</svg>
