<svg width="41" height="46" viewBox="0 0 41 46" fill="none" xmlns="http://www.w3.org/2000/svg">
<rect width="41" height="46" fill="#1A1A1A"/>
<g id="Homepage">
<rect width="1440" height="2528" transform="translate(-1081 -2325)" fill="url(#paint0_linear_0_1)"/>
<g id="Group 1060">
<g id="Group 1057">
<g id="Group 973">
<rect id="Rectangle 1068" x="-1078.5" y="-194.5" width="1435" height="395" rx="7.5" fill="#1E1E1E" fill-opacity="0.85" stroke="#9316D3" strokeWidth="5"/>
<g id="Group 1055">
<g id="Group 1054">
<g id="Group 939">
<g id="mdi:twitter">
<path id="Vector" d="M38.3484 11.3078C37.0496 11.9659 35.6497 12.3984 34.1992 12.6052C35.6834 11.6087 36.8304 10.0292 37.3701 8.13003C35.9702 9.0702 34.4184 9.72832 32.7824 10.1044C31.4499 8.48729 29.5777 7.54712 27.4525 7.54712C23.4889 7.54712 20.2505 11.1574 20.2505 15.6138C20.2505 16.2531 20.318 16.8736 20.4361 17.4565C14.4315 17.1181 9.08484 13.9027 5.526 9.03259C4.90193 10.2172 4.54774 11.6087 4.54774 13.0753C4.54774 15.877 5.81273 18.3591 7.76925 19.7693C6.57172 19.7693 5.45853 19.3933 4.48027 18.8292V18.8856C4.48027 22.7967 6.97652 26.0685 10.2824 26.8018C9.221 27.1256 8.10674 27.1707 7.02712 26.9334C7.48523 28.5364 8.38241 29.939 9.59256 30.9441C10.8027 31.9492 12.2649 32.5062 13.7738 32.5369C11.2162 34.7941 8.04586 36.0142 4.78387 35.9967C4.2104 35.9967 3.63694 35.9591 3.06348 35.8839C6.26813 38.1779 10.08 39.5129 14.1617 39.5129C27.4525 39.5129 34.7558 27.2155 34.7558 16.554C34.7558 16.1967 34.7558 15.8582 34.7389 15.501C36.1557 14.3728 37.3701 12.9437 38.3484 11.3078Z" fill="white"/>
</g>
</g>
</g>
</g>
</g>
</g>
</g>
</g>
<defs>
<linearGradient id="paint0_linear_0_1" x1="1440" y1="-7.53403e-05" x2="-557.433" y2="2420.79" gradientUnits="userSpaceOnUse">
<stop stop-color="#A117E8"/>
<stop offset="0.916667" stop-color="#4E0475" stop-opacity="0.0833333"/>
<stop offset="1" stop-color="white" stop-opacity="0"/>
</linearGradient>
</defs>
</svg>
