<svg width="36" height="33" viewBox="0 0 36 33" fill="none" xmlns="http://www.w3.org/2000/svg">
<path d="M35.3484 4.30768C34.0496 4.9658 32.6497 5.39828 31.1992 5.60512C32.6834 4.60854 33.8304 3.02905 34.3701 1.1299C32.9702 2.07007 31.4184 2.72819 29.7824 3.10426C28.4499 1.48717 26.5777 0.546997 24.4525 0.546997C20.4889 0.546997 17.2505 4.15725 17.2505 8.61366C17.2505 9.25298 17.318 9.87349 17.4361 10.4564C11.4315 10.1179 6.08484 6.90255 2.526 2.03247C1.90193 3.21708 1.54774 4.60854 1.54774 6.0752C1.54774 8.87691 2.81273 11.359 4.76925 12.7692C3.57172 12.7692 2.45853 12.3932 1.48027 11.829V11.8855C1.48027 15.7966 3.97652 19.0684 7.28237 19.8017C6.221 20.1255 5.10674 20.1706 4.02712 19.9333C4.48523 21.5363 5.38241 22.9389 6.59256 23.944C7.8027 24.949 9.26495 25.5061 10.7738 25.5367C8.21616 27.794 5.04586 29.0141 1.78387 28.9966C1.2104 28.9966 0.63694 28.959 0.0634766 28.8838C3.26813 31.1778 7.07997 32.5128 11.1617 32.5128C24.4525 32.5128 31.7558 20.2154 31.7558 9.55383C31.7558 9.19657 31.7558 8.85811 31.7389 8.50084C33.1557 7.37264 34.3701 5.94358 35.3484 4.30768Z" fill="white"/>
</svg>
