<svg width="42" height="46" viewBox="0 0 42 46" fill="none" xmlns="http://www.w3.org/2000/svg">
<g id="bx:bxl-youtube">
<path id="Vector" d="M37.3525 13.5697C37.1604 12.775 36.785 12.0503 36.2636 11.4677C35.7422 10.8851 35.093 10.4649 34.3806 10.249C31.7393 9.44042 21.1724 9.42726 21.1724 9.42726C21.1724 9.42726 10.6072 9.4141 7.9642 10.1869C7.25231 10.4128 6.60446 10.839 6.08285 11.4244C5.56124 12.0099 5.18339 12.735 4.98557 13.5302C4.28898 16.4748 4.28223 22.5821 4.28223 22.5821C4.28223 22.5821 4.27548 28.7196 4.96701 31.6341C5.35494 33.2455 6.49344 34.5185 7.94059 34.9529C10.6089 35.7614 21.1471 35.7746 21.1471 35.7746C21.1471 35.7746 31.714 35.7878 34.3553 35.0168C35.0679 34.8012 35.7177 34.382 36.2404 33.8006C36.7631 33.2192 37.1407 32.4957 37.3357 31.7018C38.0339 28.7591 38.039 22.6536 38.039 22.6536C38.039 22.6536 38.0727 16.5143 37.3525 13.5697ZM17.7924 28.2401L17.8008 16.958L26.5832 22.6085L17.7924 28.2401Z" fill="white"/>
</g>
</svg>
